<svg width="180" height="180" viewBox="0 0 180 180" fill="none" xmlns="http://www.w3.org/2000/svg">
  <rect width="180" height="180" rx="20" fill="#2563eb"/>
  <g transform="translate(30, 30)">
    <!-- House/Building icon -->
    <path d="M60 28.125L100.125 12L100.125 60L60 60Z" fill="#ffffff"/>
    <path d="M19.875 28.125L60 12L60 60L19.875 60Z" fill="#ffffff" opacity="0.8"/>
    <rect x="28.125" y="40.125" width="7.875" height="12" fill="#2563eb"/>
    <rect x="43.875" y="40.125" width="7.875" height="12" fill="#2563eb"/>
    <rect x="67.875" y="40.125" width="7.875" height="12" fill="#2563eb"/>
    <rect x="84" y="40.125" width="7.875" height="12" fill="#2563eb"/>
    
    <!-- Briefcase/Business icon -->
    <rect x="19.875" y="72" width="79.875" height="40.125" rx="4.125" fill="#ffffff"/>
    <rect x="46.125" y="67.875" width="28.125" height="7.875" rx="1.875" fill="#ffffff"/>
    <path d="M19.875 84L99.75 84" stroke="#2563eb" stroke-width="3"/>
    <rect x="54" y="91.875" width="12" height="7.875" fill="#2563eb" rx="1.875"/>
    
    <!-- Checkmark indicator -->
    <circle cx="103.875" cy="24" r="12" fill="#10b981"/>
    <path d="M97.875 24L102 28.125L109.875 19.875" stroke="#ffffff" stroke-width="3" stroke-linecap="round" stroke-linejoin="round"/>
  </g>
</svg>