<svg width="512" height="512" viewBox="0 0 512 512" fill="none" xmlns="http://www.w3.org/2000/svg">
  <rect width="512" height="512" rx="64" fill="#2563eb"/>
  <g transform="translate(96, 96)">
    <!-- House/Building icon -->
    <path d="M160 75L267 32L267 160L160 160Z" fill="#ffffff"/>
    <path d="M53 75L160 32L160 160L53 160Z" fill="#ffffff" opacity="0.8"/>
    <rect x="75" y="107" width="21" height="32" fill="#2563eb"/>
    <rect x="117" y="107" width="21" height="32" fill="#2563eb"/>
    <rect x="181" y="107" width="21" height="32" fill="#2563eb"/>
    <rect x="224" y="107" width="21" height="32" fill="#2563eb"/>
    
    <!-- Briefcase/Business icon -->
    <rect x="53" y="192" width="213" height="107" rx="11" fill="#ffffff"/>
    <rect x="123" y="181" width="75" height="21" rx="5" fill="#ffffff"/>
    <path d="M53 224L266 224" stroke="#2563eb" stroke-width="8"/>
    <rect x="144" y="245" width="32" height="21" fill="#2563eb" rx="5"/>
    
    <!-- Checkmark indicator -->
    <circle cx="277" cy="64" r="32" fill="#10b981"/>
    <path d="M261 64L272 75L293 53" stroke="#ffffff" stroke-width="8" stroke-linecap="round" stroke-linejoin="round"/>
  </g>
</svg>